<?xml version="1.0" encoding="UTF-8" standalone="no"?>
<!-- Created with Inkscape (http://www.inkscape.org/) -->
<svg xmlns:dc="http://purl.org/dc/elements/1.1/" xmlns:cc="http://web.resource.org/cc/" xmlns:rdf="http://www.w3.org/1999/02/22-rdf-syntax-ns#" xmlns:svg="http://www.w3.org/2000/svg" xmlns="http://www.w3.org/2000/svg" xmlns:sodipodi="http://sodipodi.sourceforge.net/DTD/sodipodi-0.dtd" xmlns:inkscape="http://www.inkscape.org/namespaces/inkscape" width="256" height="256" id="svg2" sodipodi:version="0.32" inkscape:version="0.45" version="1.0" sodipodi:docname="Khmer vo+i.svg" inkscape:output_extension="org.inkscape.output.svg.inkscape" sodipodi:docbase="C:\Documents and Settings\Cary\Desktop" sodipodi:modified="true">
  <defs id="defs4"/>
  <sodipodi:namedview id="base" pagecolor="#ffffff" bordercolor="#666666" borderopacity="1.0" gridtolerance="10000" guidetolerance="10" objecttolerance="10" inkscape:pageopacity="0.0" inkscape:pageshadow="2" inkscape:zoom="0.35" inkscape:cx="375" inkscape:cy="520" inkscape:document-units="px" inkscape:current-layer="layer1" width="256px" height="256px" inkscape:window-width="748" inkscape:window-height="579" inkscape:window-x="501" inkscape:window-y="290"/>
  <metadata id="metadata7">
    <rdf:RDF>
      <cc:Work rdf:about="">
        <dc:format>image/svg+xml</dc:format>
        <dc:type rdf:resource="http://purl.org/dc/dcmitype/StillImage"/>
      </cc:Work>
    </rdf:RDF>
  </metadata>
  <g inkscape:label="Layer 1" inkscape:groupmode="layer" id="layer1">
    <path style="font-size:218.80342102px;font-style:normal;font-variant:normal;font-weight:normal;font-stretch:normal;text-align:start;line-height:125%;writing-mode:lr-tb;text-anchor:start;fill:#000000;fill-opacity:1;stroke:none;stroke-width:1px;stroke-linecap:butt;stroke-linejoin:miter;stroke-opacity:1;font-family:Tibetan Machine Uni" d="M 131.09829,95.521365 L 131.09829,105.5641 L 126.82479,109.8376 C 127.67943,110.12265 128.49852,110.90613 129.28205,112.18803 C 130.06547,113.47023 130.74211,115.1084 131.31197,117.10256 C 131.88171,119.097 132.34467,121.34059 132.70086,123.83333 C 133.05692,126.32634 133.23498,128.85483 133.23504,131.4188 C 133.23498,135.26508 132.84325,138.11408 132.05983,139.96581 C 131.2763,141.81778 130.10108,143.8833 128.53419,146.16239 L 161.44017,146.16239 C 161.01273,141.3192 160.58538,137.3306 160.15812,134.19658 C 159.73068,131.0628 159.23211,128.42748 158.6624,126.2906 C 158.09251,124.15398 157.34465,122.33774 156.41881,120.84188 C 155.4928,119.34629 154.24636,117.74373 152.67949,116.03419 L 152.67949,103.21367 L 160.3718,95.521365 L 173.83334,95.521365 L 177.46581,99.581194 L 177.46581,113.25641 C 176.32611,114.11125 175.40018,115.60698 174.68804,117.74359 C 173.97568,119.88048 173.33466,122.48019 172.76496,125.54273 C 172.19506,128.60554 171.76771,131.95311 171.48291,135.58547 C 171.19791,139.21806 170.98423,142.95738 170.84188,146.80342 L 173.40599,148.72649 L 173.40599,161.33333 L 170.62821,163.89743 L 170.62821,226.50427 C 170.62811,227.50145 170.12953,228.00002 169.13248,228 C 168.42013,228.00002 167.35176,227.50145 165.92735,226.50427 L 165.71368,226.29059 C 161.86743,223.29917 157.73638,220.59262 153.32051,218.17094 C 148.90448,215.74932 144.41731,213.71941 139.85898,212.08119 C 135.30051,210.44306 130.74211,209.16101 126.18376,208.23504 C 121.62531,207.30916 117.28058,206.8462 113.14957,206.84615 C 109.73073,206.8462 107.13102,207.34477 105.35043,208.34188 C 103.56977,209.33907 101.39741,209.83765 98.83333,209.8376 C 96.26921,209.83765 94.34613,208.8405 93.0641,206.84615 C 91.78203,204.8519 91.14101,202.78637 91.14103,200.64957 C 91.14101,198.37042 91.85326,196.09122 93.27778,193.81196 C 94.70226,191.53282 96.26921,190.0371 97.97863,189.32478 L 98.19231,188.68376 C 99.18943,185.26502 100.50709,181.52571 102.1453,177.46581 C 103.78344,173.40606 106.73928,169.73797 111.01282,166.46153 L 103.10684,166.46153 L 100.54274,163.89743 L 100.54274,154.49572 L 108.44872,146.16239 L 121.69658,146.16239 C 122.97858,144.4531 124.01135,143.17105 124.79487,142.31624 C 125.5783,141.46165 125.97003,139.53858 125.97009,136.54701 C 125.97003,133.98303 125.5783,131.49015 124.79487,129.06837 C 124.01135,126.64685 122.69368,124.47449 120.84188,122.55128 C 118.98998,120.62834 116.63956,119.06139 113.7906,117.85043 C 110.94156,116.63974 107.38031,116.03433 103.10684,116.03419 C 95.27206,116.03433 89.60967,117.35199 86.11966,119.98718 C 82.62962,122.62264 80.88461,125.79215 80.88462,129.49572 C 80.88461,132.2024 81.88176,134.4816 83.87607,136.33333 C 85.87036,138.1853 88.79058,139.39613 92.63675,139.96581 L 92.63675,160.47863 C 89.50283,159.90893 86.86751,158.4132 84.73077,155.99145 C 82.59401,153.5699 80.84899,150.79213 79.49573,147.65812 C 78.14244,144.52433 77.18091,141.3192 76.61111,138.04273 C 76.04131,134.7665 75.75641,131.9175 75.75641,129.49572 C 75.75641,127.3591 76.00569,125.04429 76.50427,122.55128 C 77.00284,120.05854 77.60826,117.63689 78.32051,115.28632 C 79.03276,112.93604 79.78062,110.8349 80.5641,108.9829 C 81.34757,107.1312 82.02421,105.77793 82.59402,104.92307 L 89.21795,95.521365 L 131.09829,95.521365 z M 162.29487,166.46153 L 118.49145,166.46153 C 115.49996,168.59837 112.65096,171.41176 109.94445,174.9017 C 107.23786,178.39181 105.45723,182.70092 104.60257,187.82905 C 106.02703,187.40177 107.48714,187.04565 108.98291,186.76068 C 110.4786,186.47585 111.86748,186.3334 113.14957,186.33333 C 120.98428,186.3334 127.21647,187.33055 131.84616,189.32478 C 136.47572,191.31915 140.46432,193.81202 143.81197,196.80341 C 147.15947,199.79492 150.32898,203.10689 153.32051,206.73931 C 156.31188,210.37184 160.08681,213.75502 164.6453,216.88888 L 162.29487,166.46153 z M 180.24359,88.683758 C 180.24359,89.823526 179.53134,90.393326 178.10684,90.393159 C 176.39744,90.393326 174.54559,89.396176 172.55128,87.401706 C 165.00144,79.424676 157.91456,72.693913 151.2906,67.209399 C 144.66671,61.725264 138.50574,57.309314 132.80769,53.961536 C 127.10974,50.614164 122.05277,48.192513 117.63675,46.696578 C 113.22087,45.201063 109.51717,44.453201 106.52564,44.452988 C 100.25792,44.453201 97.12402,46.447501 97.12393,50.435895 C 97.12402,54.139801 98.61974,57.024414 101.61111,59.089741 C 104.60264,61.155464 108.59124,62.188226 113.57692,62.188031 C 114.43169,62.188226 115.6069,62.081389 117.10256,61.867519 C 118.59835,61.654039 120.12969,61.547201 121.69658,61.547006 C 124.40319,61.547201 126.82484,62.579964 128.96154,64.645296 C 131.09834,66.711014 132.16672,68.812151 132.16667,70.948715 C 132.16672,73.085651 131.31202,75.151176 129.60256,77.145296 C 127.89322,79.139776 125.40034,80.136926 122.12393,80.136749 L 111.65384,80.136749 C 108.23512,80.136926 104.99438,79.567126 101.93162,78.427347 C 98.86903,77.287926 96.16248,75.542914 93.81196,73.192305 C 91.46163,70.842063 89.60978,67.993064 88.25641,64.645296 C 86.90323,61.297914 86.22659,57.344926 86.22649,52.786322 C 86.22659,49.795076 87.43742,46.839238 89.85897,43.9188 C 92.28072,40.998788 95.27217,38.363463 98.83333,36.012817 C 102.39467,33.662613 106.13398,31.739538 110.05128,30.243586 C 113.96873,28.748088 117.42314,28.000226 120.41453,27.999996 C 124.40319,28.000226 128.74792,29.674013 133.44872,33.021364 C 138.14962,36.369163 142.88608,40.535826 147.65812,45.521364 C 152.43023,50.507326 157.09547,55.920426 161.65385,61.760681 C 166.21227,67.601326 170.34332,73.014426 174.04701,77.999997 C 175.18662,79.567126 176.50428,81.312139 178,83.23504 C 179.49573,85.158289 180.24359,86.974526 180.24359,88.683758 L 180.24359,88.683758 z " id="text2170"/>
  </g>
</svg>