<svg width="206" height="179" viewBox="0 0 206 179" fill="none" xmlns="http://www.w3.org/2000/svg">
<g clip-path="url(#clip0_408_71)">
<path d="M104.95 46.04H97.46C93.89 46.04 89.19 47.59 83.37 50.68C77.54 53.77 71.95 58.47 66.6 64.77C61.25 71.07 56.61 78.92 52.69 88.31C48.77 97.71 46.8 108.71 46.8 121.31C46.8 130.58 46.86 139.27 46.98 147.35C47.1 155.44 47.16 161.98 47.16 166.97C47.16 171.02 45.32 173.93 41.63 175.71C37.94 177.49 34.55 178.39 31.46 178.39C28.37 178.39 25.45 177.14 22.72 174.64C19.98 172.14 17.19 167.33 14.34 160.19C12.43 153.06 11.31 145.51 10.95 137.54C10.59 129.57 10.41 121.43 10.41 113.1C10.41 104.06 10.53 95.15 10.77 86.35C11 77.55 11.96 69.17 13.62 61.2C15.28 53.23 17.9 45.74 21.47 38.73C25.04 31.72 30.15 25.48 36.81 20C37.76 18.81 39.54 17.45 42.16 15.9C44.77 14.36 46.68 13.58 47.87 13.58C49.77 13.58 50.96 13.88 51.44 14.47C51.91 15.07 52.15 15.84 52.15 16.79C52.15 18.22 51.67 20.12 50.72 22.5C49.77 24.88 48.76 27.38 47.69 29.99C46.62 32.61 45.61 35.22 44.66 37.84C43.71 40.46 43.23 42.72 43.23 44.62C43.23 45.81 43.59 46.4 44.3 46.4C49.77 39.74 54.41 34.27 58.21 29.99C62.01 25.71 66.35 22.32 71.23 19.82C76.1 17.32 82.17 15.66 89.42 14.83C96.67 14 106.36 13.58 118.49 13.58C132.76 13.58 144.29 14.47 153.09 16.26C161.89 18.04 168.72 20.72 173.6 24.29C178.47 27.86 181.74 32.32 183.41 37.67C185.07 43.02 185.91 49.26 185.91 56.4C185.91 58.07 185.73 59.91 185.37 61.93C185.01 63.95 184.53 66.39 183.94 69.24C183.34 72.09 182.87 75.54 182.51 79.59C182.15 83.64 181.97 88.51 181.97 94.22C181.97 101.12 182.38 108.02 183.22 114.91C184.05 121.81 185 128.23 186.07 134.17C187.14 140.12 188.09 145.29 188.92 149.69C189.75 154.09 190.17 157 190.17 158.43C190.17 161.05 188.15 163.25 184.11 165.03C180.06 166.81 176.5 167.71 173.41 167.71C169.36 167.71 165.14 166.11 160.75 162.89C156.35 159.68 151.71 156.17 146.84 152.37C141.96 148.57 136.91 145.06 131.68 141.85C126.45 138.64 120.98 137.03 115.27 137.03C113.36 137.03 111.22 137.45 108.85 138.28C106.47 139.12 104.03 139.95 101.54 140.78C99.04 141.62 96.55 142.45 94.05 143.28C91.55 144.12 89.23 144.53 87.09 144.53C81.86 144.53 77.75 143.82 74.78 142.39C71.8 140.96 70.32 138.23 70.32 134.18C70.32 130.85 71.27 126.39 73.17 120.8C75.07 115.22 77.45 109.15 80.3 102.61C83.15 96.07 86.3 89.47 89.75 82.81C93.19 76.15 96.41 70.15 99.38 64.79C102.35 59.44 104.91 55.1 107.05 51.77C109.19 48.44 110.38 46.78 110.62 46.78C109.43 46.31 107.53 46.07 104.91 46.07L104.95 46.04ZM150.07 117.03C149.71 116.56 149.36 115.78 149 114.71C148.64 113.64 148.34 111.98 148.11 109.72C147.87 107.46 147.75 103.96 147.75 99.2C147.75 94.21 147.87 89.33 148.11 84.57C148.34 79.82 148.64 75.47 149 71.55C149.36 67.63 149.65 64.36 149.89 61.74C150.12 59.13 150.25 57.34 150.25 56.39C145.73 56.39 141.87 58.06 138.66 61.38C135.45 64.71 132.53 68.87 129.92 73.87C127.3 78.86 124.93 84.16 122.79 89.74C120.65 95.33 118.51 100.39 116.37 104.9C116.6 104.67 117.14 104.49 117.98 104.36C118.81 104.24 119.59 104.18 120.3 104.18C123.15 104.18 127.43 105.31 133.14 107.57C138.85 109.83 144.67 113.7 150.62 119.16C150.62 118.21 150.44 117.5 150.08 117.02L150.07 117.03Z" fill="white" stroke="black"/>
<path d="M0.200017 85.58C0.070017 85.35 1.69873e-05 85.1 1.69873e-05 84.82C1.69873e-05 84.61 0.040017 84.41 0.130017 84.22C0.210017 84.03 0.330017 83.86 0.490017 83.7C0.630017 83.56 0.840017 83.36 1.10002 83.09C1.37002 82.82 1.66002 82.5 1.97002 82.13C2.28002 81.76 2.59002 81.34 2.91002 80.88C3.23002 80.42 3.52002 79.93 3.78002 79.41C4.04002 78.89 4.26002 78.34 4.42002 77.77C4.59002 77.2 4.67002 76.62 4.67002 76.03C4.67002 75.86 4.67002 75.66 4.66002 75.43C4.66002 75.2 4.62002 74.98 4.58002 74.76C4.54002 74.54 4.45002 74.37 4.35002 74.22C4.24002 74.07 4.09002 74 3.90002 74C3.66002 74 3.44002 74.11 3.22002 74.34C3.01002 74.57 2.82002 74.83 2.66002 75.13C2.50002 75.43 2.36002 75.75 2.24002 76.08C2.12002 76.41 2.03002 76.68 1.98002 76.88C1.92002 77.08 1.90002 77.19 1.90002 77.21C1.56002 77.15 1.29002 77.09 1.09002 77.02C0.890017 76.95 0.700017 76.85 0.530017 76.73C0.360017 76.61 0.280017 76.45 0.280017 76.25C0.490017 75.73 0.700017 75.21 0.890017 74.7C1.08002 74.19 1.32002 73.72 1.58002 73.32C1.84002 72.92 2.15002 72.58 2.50002 72.34C2.85002 72.1 3.30002 71.97 3.83002 71.97C4.32002 71.97 4.75002 72.07 5.11002 72.28C5.47002 72.48 5.77002 72.77 6.01002 73.13C6.25002 73.49 6.43002 73.92 6.55002 74.42C6.67002 74.92 6.73002 75.47 6.73002 76.06C6.73002 76.76 6.61002 77.5 6.37002 78.26C6.13002 79.02 5.82002 79.77 5.45002 80.5C5.08002 81.23 4.66002 81.93 4.20002 82.58C3.74002 83.23 3.30002 83.81 2.86002 84.31C2.42002 84.81 2.02002 85.2 1.65002 85.49C1.28002 85.78 0.990017 85.92 0.790017 85.92C0.550017 85.92 0.360017 85.81 0.230017 85.58H0.200017Z" fill="black"/>
<path d="M76.11 6.29998C75.93 6.26998 75.76 6.21998 75.62 6.12998C75.48 6.04998 75.37 5.91998 75.29 5.75998C75.21 5.59998 75.17 5.37998 75.17 5.08998C75.17 4.95998 75.24 4.74998 75.39 4.43998C75.54 4.12998 75.75 3.78998 76.01 3.41998C76.27 3.04998 76.59 2.65998 76.95 2.25998C77.31 1.85998 77.7 1.48998 78.13 1.14998C78.56 0.809979 79.01 0.539979 79.48 0.329979C79.95 0.119979 80.43 0.00997925 80.93 0.00997925C81.56 0.00997925 82.12 0.0599792 82.6 0.159979C83.08 0.259979 83.48 0.429979 83.81 0.679979C84.14 0.929979 84.39 1.25998 84.55 1.68998C84.71 2.11998 84.79 2.66998 84.79 3.32998C84.79 3.63998 84.75 3.97998 84.66 4.36998C84.57 4.75998 84.46 5.12998 84.31 5.49998C84.16 5.86998 83.98 6.21998 83.76 6.54998C83.54 6.87998 83.31 7.13998 83.05 7.34998C83.53 7.34998 83.95 7.47998 84.33 7.72998C84.7 7.97998 85.03 8.30998 85.3 8.69998C85.57 9.08998 85.81 9.51998 86.01 9.98998C86.21 10.45 86.37 10.89 86.49 11.3C86.61 11.71 86.69 12.06 86.74 12.37C86.79 12.67 86.81 12.85 86.81 12.91C86.81 13.36 86.68 13.65 86.43 13.77C86.18 13.89 85.77 13.95 85.23 13.95C85.17 13.95 85.12 13.83 85.07 13.59C85.02 13.35 84.95 13.05 84.86 12.7C84.77 12.35 84.66 11.96 84.52 11.54C84.39 11.12 84.21 10.73 83.98 10.38C83.75 10.03 83.48 9.72998 83.17 9.48998C82.85 9.24998 82.47 9.12998 82.02 9.12998C81.68 9.12998 81.39 9.19998 81.15 9.32998C80.91 9.45998 80.7 9.60998 80.52 9.76998C80.34 9.92998 80.17 10.08 80.01 10.21C79.85 10.34 79.69 10.41 79.52 10.41C79.25 10.41 79.01 10.31 78.78 10.11C78.55 9.90998 78.44 9.64998 78.44 9.32998C78.44 9.08998 78.55 8.84998 78.76 8.59998C78.97 8.34998 79.24 8.08998 79.56 7.81998C79.88 7.54998 80.23 7.24998 80.6 6.92998C80.97 6.60998 81.31 6.27998 81.64 5.91998C81.96 5.55998 82.23 5.16998 82.44 4.73998C82.65 4.30998 82.76 3.83998 82.76 3.33998C82.76 3.02998 82.7 2.78998 82.59 2.60998C82.48 2.42998 82.33 2.29998 82.16 2.21998C81.98 2.13998 81.79 2.08998 81.57 2.06998C81.35 2.04998 81.13 2.04998 80.9 2.04998C80.52 2.04998 80.12 2.18998 79.71 2.47998C79.29 2.76998 78.9 3.12998 78.52 3.56998C78.14 4.00998 77.79 4.47998 77.46 4.96998C77.14 5.46998 76.88 5.92998 76.68 6.34998C76.47 6.34998 76.27 6.33998 76.09 6.30998L76.11 6.29998Z" fill="black"/>
<path d="M88.67 140.17C88.61 140.29 88.54 140.41 88.44 140.53C88.34 140.65 88.23 140.75 88.11 140.83C87.99 140.91 87.87 140.95 87.74 140.95C87.67 140.95 87.59 140.86 87.5 140.69C87.41 140.51 87.3 140.29 87.17 140.02C87.04 139.75 86.9 139.47 86.73 139.16C86.56 138.85 86.37 138.57 86.17 138.3C85.97 138.03 85.73 137.81 85.47 137.63C85.21 137.45 84.93 137.37 84.64 137.37C84.43 137.37 84.2 137.44 83.94 137.58C83.69 137.72 83.45 137.88 83.23 138.06C83.01 138.24 82.82 138.39 82.66 138.54C82.5 138.68 82.4 138.75 82.35 138.75C82.08 138.75 81.85 138.6 81.64 138.29C81.44 137.98 81.33 137.63 81.33 137.23C81.33 137.16 81.44 137.04 81.65 136.86C81.86 136.68 82.13 136.48 82.44 136.24C82.76 136 83.1 135.74 83.48 135.46C83.85 135.18 84.2 134.9 84.52 134.63C84.84 134.36 85.1 134.09 85.31 133.84C85.52 133.59 85.63 133.37 85.63 133.19C85.63 132.91 85.52 132.67 85.31 132.46C85.1 132.26 84.79 132.15 84.38 132.15C84.25 132.15 84.07 132.22 83.83 132.35C83.59 132.48 83.33 132.65 83.04 132.85C82.75 133.05 82.46 133.27 82.15 133.5C81.85 133.74 81.57 133.96 81.32 134.15C81.07 134.35 80.84 134.51 80.65 134.65C80.46 134.78 80.34 134.85 80.3 134.85C80.07 134.85 79.9 134.8 79.76 134.7C79.63 134.6 79.52 134.48 79.45 134.33C79.38 134.18 79.33 134.02 79.31 133.84C79.29 133.66 79.28 133.5 79.28 133.34C79.28 133.24 79.38 133.1 79.57 132.92C79.76 132.74 80 132.53 80.29 132.31C80.58 132.08 80.89 131.85 81.23 131.6C81.57 131.35 81.88 131.11 82.17 130.88C82.46 130.65 82.7 130.44 82.89 130.26C83.08 130.08 83.18 129.93 83.18 129.82C83.18 129.58 83.04 129.39 82.77 129.24C82.5 129.09 82.11 129.02 81.62 129.02C81.28 129.02 80.95 129.1 80.64 129.25C80.32 129.41 80.03 129.59 79.75 129.8C79.48 130.01 79.22 130.23 78.99 130.47C78.76 130.71 78.55 130.9 78.37 131.07C78.07 131.07 77.82 130.96 77.6 130.75C77.38 130.54 77.27 130.29 77.27 130.01C77.27 129.87 77.3 129.74 77.35 129.63C77.59 129.32 77.86 129.01 78.17 128.69C78.48 128.37 78.81 128.09 79.17 127.83C79.53 127.58 79.92 127.37 80.33 127.22C80.75 127.07 81.18 126.99 81.63 126.99C82.08 126.99 82.55 127.02 82.98 127.08C83.41 127.14 83.8 127.26 84.12 127.42C84.44 127.58 84.7 127.81 84.9 128.1C85.1 128.39 85.2 128.75 85.2 129.19C85.2 129.32 85.17 129.44 85.12 129.55C85.07 129.66 85 129.76 84.94 129.86C84.88 129.95 84.82 130.03 84.77 130.1C84.72 130.17 84.7 130.23 84.7 130.29C85.07 130.29 85.43 130.34 85.78 130.44C86.13 130.54 86.45 130.7 86.73 130.94C87.01 131.17 87.24 131.48 87.41 131.85C87.58 132.22 87.66 132.69 87.66 133.25C87.66 133.59 87.59 133.92 87.46 134.23C87.33 134.54 87.17 134.84 87.01 135.1C86.85 135.36 86.69 135.58 86.55 135.75C86.41 135.93 86.34 136.04 86.34 136.08C86.64 136.08 86.93 136.2 87.22 136.45C87.51 136.7 87.77 137.01 88 137.38C88.23 137.75 88.42 138.16 88.56 138.61C88.7 139.05 88.77 139.48 88.77 139.89C88.77 139.97 88.74 140.08 88.69 140.2L88.67 140.17Z" fill="black"/>
<path d="M202.51 144.88C202.56 145.11 202.58 145.35 202.58 145.59C202.58 145.8 202.5 146.01 202.35 146.22C202.2 146.43 201.99 146.62 201.74 146.78C201.49 146.94 201.2 147.07 200.88 147.17C200.56 147.27 200.24 147.32 199.92 147.32C199.19 147.32 198.59 147.26 198.11 147.13C197.64 147 197.26 146.85 196.98 146.67C196.7 146.49 196.48 146.28 196.34 146.06C196.19 145.83 196.08 145.63 195.99 145.45C195.91 145.27 195.83 145.11 195.77 144.99C195.71 144.86 195.61 144.8 195.48 144.8C195.32 144.8 195.12 144.95 194.86 145.24C194.6 145.54 194.35 145.88 194.1 146.26C193.85 146.65 193.64 147.03 193.47 147.4C193.29 147.77 193.21 148.04 193.21 148.19C193.21 148.58 193.32 148.92 193.53 149.19C193.74 149.46 194.02 149.69 194.35 149.87C194.69 150.05 195.07 150.19 195.49 150.29C195.91 150.4 196.34 150.47 196.77 150.52C197.2 150.57 197.61 150.6 198 150.6C198.39 150.6 198.72 150.61 199 150.61C199.9 150.61 200.68 150.51 201.34 150.3C202 150.1 202.55 149.87 202.99 149.62C203.43 149.37 203.76 149.15 203.99 148.94C204.22 148.74 204.36 148.63 204.4 148.63C204.53 148.63 204.64 148.68 204.73 148.79C204.82 148.9 204.9 149.02 204.95 149.17C205 149.32 205.05 149.47 205.08 149.61C205.11 149.76 205.12 149.87 205.12 149.96C205.12 150.16 205.04 150.35 204.88 150.55C204.72 150.75 204.53 150.93 204.31 151.1C204.09 151.27 203.87 151.42 203.64 151.55C203.41 151.68 203.24 151.78 203.11 151.84C202.43 152.14 201.75 152.34 201.07 152.45C200.39 152.56 199.66 152.62 198.9 152.62C197.93 152.62 196.98 152.56 196.05 152.43C195.12 152.3 194.3 152.08 193.58 151.75C192.86 151.42 192.28 150.99 191.84 150.43C191.4 149.87 191.17 149.17 191.17 148.31C191.17 147.8 191.31 147.2 191.59 146.5C191.87 145.8 192.24 145.14 192.69 144.5C193.14 143.87 193.64 143.33 194.2 142.88C194.76 142.44 195.3 142.21 195.84 142.21C196.19 142.21 196.46 142.28 196.65 142.43C196.84 142.58 197 142.76 197.14 142.99C197.27 143.22 197.4 143.46 197.51 143.73C197.62 144 197.77 144.24 197.96 144.47C198.15 144.7 198.4 144.88 198.71 145.03C199.02 145.18 199.44 145.25 199.96 145.25C200.1 145.25 200.26 145.21 200.42 145.13C200.59 145.05 200.76 144.96 200.95 144.87C201.13 144.77 201.33 144.68 201.53 144.61C201.73 144.53 201.96 144.49 202.2 144.49C202.36 144.49 202.46 144.61 202.51 144.84V144.88Z" fill="black"/>
<path d="M22.75 151.27C22.31 148.72 21.92 146.11 21.57 143.54L22.56 143.41C22.72 144.58 22.88 145.75 23.06 146.93L23.87 146.97C23.74 149.65 23.74 151.18 23.74 151.2L22.75 151.28V151.27ZM24.83 134.97L23.84 134.86C24.28 130.88 24.83 126.86 25.5 122.91L26.49 123.08C25.83 127.01 25.28 131.01 24.84 134.97H24.83ZM20.34 131.57C20.05 127.6 19.86 123.56 19.79 119.56L20.79 119.54C20.86 123.52 21.04 127.55 21.34 131.5L20.34 131.57ZM28.8 111.31L27.83 111.09C28.74 107.11 29.77 103.19 30.89 99.43L31.85 99.72C30.73 103.46 29.71 107.36 28.81 111.32L28.8 111.31ZM20.91 107.57L19.91 107.53C20.06 103.55 20.32 99.52 20.69 95.53L21.69 95.62C21.32 99.59 21.06 103.61 20.91 107.57ZM35.68 88.37L34.75 88.01C36.21 84.17 37.81 80.45 39.51 76.94L40.41 77.38C38.72 80.86 37.13 84.56 35.68 88.37ZM23.1 83.73L22.11 83.59C22.69 79.64 23.38 75.66 24.16 71.74L25.14 71.94C24.36 75.84 23.67 79.81 23.1 83.74V83.73ZM46.13 66.88L45.28 66.36C47.43 62.86 49.75 59.54 52.18 56.48L52.96 57.1C50.56 60.13 48.26 63.42 46.13 66.88ZM27.8 60.25L26.83 60C27.83 56.1 28.93 52.21 30.12 48.43L31.07 48.73C29.89 52.49 28.79 56.37 27.79 60.25H27.8ZM60.97 48.29L60.28 47.57C63.22 44.76 66.35 42.19 69.58 39.92L70.15 40.74C66.95 42.98 63.86 45.52 60.96 48.29H60.97ZM34.99 37.42L34.06 37.06C36.75 30 38.78 26 38.8 25.96L39.69 26.41C39.69 26.41 37.66 30.41 35 37.42H34.99ZM80.4 34.73L79.96 33.83C83.53 32.1 87.3 30.63 91.17 29.46L91.46 30.42C87.65 31.57 83.92 33.02 80.4 34.73ZM161.87 34.59C157.98 33.34 154.12 32.22 150.37 31.27L150.62 30.3C154.38 31.26 158.27 32.38 162.18 33.64L161.87 34.59ZM138.69 28.74C134.66 28.03 130.67 27.51 126.84 27.19L126.92 26.19C130.78 26.51 134.8 27.04 138.86 27.75L138.69 28.74ZM103.05 27.82L102.9 26.83C106.75 26.25 110.79 25.91 114.88 25.81L114.9 26.81C110.85 26.9 106.86 27.24 103.04 27.82H103.05Z" fill="black"/>
<path d="M13.13 83.19L30.34 86.31L20.25 92.95L13.13 83.19Z" fill="black"/>
<path d="M81.53 42.43L76.47 25.68L86.98 31.64L81.53 42.43Z" fill="black"/>
<path d="M156.68 42.2L161.26 25.31L167.01 35.94L156.68 42.2Z" fill="black"/>
<path d="M88.02 115.53L102.58 125.24L90.68 127.32L88.02 115.53Z" fill="black"/>
<path d="M161.95 150.43L165.92 133.38L172.05 143.79L161.95 150.43Z" fill="black"/>
<path d="M165.9 143.19L165.16 142.66C165.16 142.66 164.73 142.35 163.95 141.82L164.51 140.99C164.7 141.11 164.86 141.23 165 141.33C165.08 139.8 165.27 136.38 165.51 131.68L166.51 131.73C166.18 138.24 165.95 142.28 165.95 142.28L165.9 143.19ZM153.72 135.57C150.17 133.6 146.58 131.79 143.03 130.19L143.44 129.28C147.01 130.89 150.63 132.72 154.2 134.7L153.71 135.57H153.72ZM131.91 125.79C127.95 124.46 124.08 123.42 120.38 122.7L120.57 121.72C124.31 122.45 128.23 123.5 132.23 124.84L131.91 125.79ZM96.79 122.82L96.54 121.85C100.15 120.93 104.05 120.46 108.15 120.46H108.56V121.46H108.16C104.15 121.46 100.32 121.92 96.8 122.82H96.79ZM167.1 119.72L166.1 119.67C166.28 115.93 166.46 111.89 166.65 107.67L167.65 107.71C167.47 111.94 167.28 115.98 167.1 119.72ZM93.3 118.15L92.34 117.88C93.39 114.11 94.6 110.23 95.92 106.36L96.87 106.68C95.55 110.53 94.35 114.39 93.3 118.15ZM168.14 95.7L167.14 95.66C167.29 91.68 167.44 87.64 167.57 83.65L168.57 83.68C168.44 87.67 168.3 91.71 168.14 95.69V95.7ZM101.08 95.45L100.15 95.07C101.7 91.27 103.36 87.57 105.07 84.07L105.97 84.51C104.27 87.99 102.62 91.68 101.08 95.45ZM111.63 73.95L110.77 73.44C112.89 69.85 115.11 66.45 117.38 63.35L118.19 63.94C115.94 67.02 113.73 70.38 111.63 73.95ZM168.91 71.67L167.91 71.65C168.01 67.29 168.08 63.25 168.11 59.64H169.11C169.08 63.26 169.01 67.31 168.91 71.67ZM125.8 54.76L125.07 54.07C127.96 51.03 130.98 48.31 134.05 46.01L134.65 46.81C131.63 49.08 128.65 51.76 125.8 54.76ZM168.06 47.64C167.83 37.93 167.11 36.59 166.89 36.41C166.89 36.41 166.94 36.44 166.99 36.44L167.04 35.44C167.73 35.47 168.77 35.52 169.06 47.61L168.06 47.63V47.64ZM144.82 40.7L144.4 39.79C148.11 38.09 151.98 36.86 155.9 36.15L156.08 37.13C152.24 37.83 148.46 39.03 144.82 40.7Z" fill="black"/>
</g>
<defs>
<clipPath id="clip0_408_71">
<rect width="205.12" height="178.89" fill="white"/>
</clipPath>
</defs>
</svg>
